<?xml version="1.0" encoding="iso-8859-1"?>
<!-- Generator: Adobe Illustrator 19.0.0, SVG Export Plug-In . SVG Version: 6.00 Build 0)  -->
<svg version="1.1" id="Capa_1" xmlns="http://www.w3.org/2000/svg" xmlns:xlink="http://www.w3.org/1999/xlink" x="0px" y="0px"
	 viewBox="0 0 512.001 512.001" style="enable-background:new 0 0 512.001 512.001;" xml:space="preserve">
<g>
	<g>
		<path fill="#fff" d="M172.001,174.397c-5.51,0-10,4.49-10,10c0,5.52,4.49,10,10,10s10-4.48,10-10
			C182.001,178.887,177.511,174.397,172.001,174.397z"/>
	</g>
</g>
<g>
	<g>
		<path fill="#fff" d="M170.001,227.396c-5.51,0-10,4.49-10,10c0,5.52,4.49,10,10,10s10-4.48,10-10
			C180.001,231.886,175.511,227.396,170.001,227.396z"/>
	</g>
</g>
<g>
	<g>
		<path fill="#fff" d="M173.001,279.405c-5.51,0-10,4.48-10,9.99c0,5.52,4.49,10,10,10s10-4.48,10-10
			C183.001,283.885,178.511,279.405,173.001,279.405z"/>
	</g>
</g>
<g>
	<g>
		<path fill="#fff" d="M506.871,398.106c-2.959-1.714-6.703-2.075-9.838-0.282c-14.67,8.394-58.005,30.178-82.032,30.178
			c-2.189,0-4.676-0.061-7.391-0.17c3.987-6.285,9.234-13.53,15.462-19.758c19.428-19.428,47.962-25.958,67.816-44.82
			c11.397-10.828,16.484-26.555,13.955-43.149c-2.459-16.134-12.02-30.797-26.23-40.828c2.194-4.79,3.431-10.171,3.431-15.857
			c0-5.792-1.278-11.268-3.549-16.125C496.99,247.173,512,231.015,512,211.171c0-19.897-15.09-36.089-33.652-36.124l-0.075-0.001
			c2.409-5.008,3.771-10.693,3.771-16.715c0-20.068-15.125-36.395-33.713-36.395l-103.331-0.025v-111.9c0-5.523-4.477-10-10-10
			c0,0-43.079,0.056-43.602,0.14c0.014-0.044,0.025-0.09,0.039-0.134c-4.325,0.069-8.624,1.099-12.661,3.101
			c-0.28,0.139-21.288,13.125-29.048,17.935c-3.836-8.652-10.636-15.269-19.247-18.675c-8.493-3.359-17.734-3.154-26.023,0.58
			c-0.27,0.122-68.916,38.72-73.513,41.598l-0.028-0.05c-0.994,0.555-24.611,13.775-48.65,30.038
			c-32.458,21.96-45.146,35.422-49.812,44.826c0,0-22.38-0.115-22.404-0.115c-5.477-0.028-10.051,4.531-10.051,10v170.228
			c0,5.487,4.421,9.949,9.908,9.999l18.426,0.169c18.011,16.932,50.753,42.142,85.996,42.142h37.668
			c-0.132,12.676,3.203,31.913,22.688,41.231c13.76,6.58,25.64,3.643,35.187,1.281c10.481-2.592,14.386-3.195,19.877,2.585
			c10.108,10.639,2.686,25.904-1.258,32.356c-20.954,3.703-42.943,6.756-58.492,6.756c-17.661,0-45.617-14.754-72.652-29.022
			c-30.719-16.212-62.483-32.976-87.348-32.976c-5.523,0-10,4.477-10,10v117.997c0,5.523,4.477,10,10,10h492c5.523,0,10-4.477,10-10
			c0,0,0-95.082,0-95.497C512,402.885,509.827,399.819,506.871,398.106z M485.071,323.118c1.531,10.034-1.37,19.378-7.958,25.636
			c-6.917,6.572-17.54,12.397-28.785,18.564c-13.918,7.633-28.31,15.525-39.399,26.614c-10.909,10.909-19.048,23.997-23.678,32.402
			c-12.708-1.08-26.912-2.561-40.251-4.061v-70.48h73.372c18.591,0,33.715-16.205,33.715-36.124c0-5.792-1.278-11.268-3.549-16.125
			c6.175-0.041,11.957-1.877,16.926-5.033C476.274,301.458,483.319,311.624,485.071,323.118z M389.772,299.545h0.677
			c1.039,0,27.368,0,27.924,0c7.563,0,13.715,7.233,13.715,16.125c0,8.892-6.153,16.125-13.715,16.125h-28.611
			c2.434-4.857,3.813-10.332,3.813-16.125C393.574,309.878,392.204,304.4,389.772,299.545z M422.822,247.401
			c-0.001,0,25.841-0.024,26.204-0.064c7.238,0.43,13.019,7.468,13.019,16.083c0,8.891-6.153,16.125-13.715,16.125l-25.5-0.145
			c2.39-4.822,3.745-10.244,3.745-15.98C426.575,257.67,425.222,252.231,422.822,247.401z M478.179,195.046c0.036,0,0.071,0,0.107,0
			c7.563,0,13.715,7.233,13.715,16.125c0,8.892-6.153,16.125-13.715,16.125h-22.524c2.434-4.857,3.813-10.332,3.813-16.125
			c0-5.89-1.426-11.449-3.934-16.367L478.179,195.046z M448.33,141.935c7.563,0,13.715,7.355,13.715,16.395
			c0,8.392-5.304,15.322-12.114,16.274c-0.649-0.132-27.089-0.202-27.089-0.202c2.381-4.851,3.732-10.303,3.732-16.072
			c0-5.899-1.409-11.469-3.892-16.401L448.33,141.935z M303.001,20.01h22v101.895l-22-0.005V20.01z M252.221,43.064
			c9.963-6.19,21.022-13.047,30.78-19.09v35.738l-40.249,27.314c-12.62,7.962-15.178,23.443-12.235,34.875L176,121.889
			c-8.323-0.002-6.319-14.822-1.096-17.769c0.116-0.066,58.139-35.806,58.139-35.806C243.001,62.01,250.123,53.844,252.221,43.064z
			 M283.001,83.882v38.013l-29.345-0.007c-7.032-0.015-4.137-15.534-0.174-17.984c0.118-0.073,0.234-0.148,0.348-0.226
			L283.001,83.882z M114.331,331.795c-31.295-0.001-62.85-27.461-74.964-39.268c-1.845-1.798-4.312-2.814-6.888-2.838l-12.478-0.114
			V139.306c0,0,19.834,0.102,19.897,0.103c5.323,0.027,9.989-4.592,10.051-9.883c0.165-0.843,2.986-11.157,44.768-39.254
			c22.891-15.394,91.207-54.005,118.307-69.23c7.048-3.958,15.88,1.969,18.594,8.491c3.382,8.125,0.052,17.473-7.423,20.838
			c-0.393,0.177-59.289,36.426-59.289,36.426c-11.592,6.641-17.157,20.866-13.539,34.678c3.249,12.4,12.917,20.412,24.631,20.412
			l214.451,0.047c8.892,0,16.125,7.355,16.125,16.395c0,7.932-5.569,14.564-12.94,16.072l-181.633-0.004c-5.51,0-10,4.49-10,10
			c0,5.52,4.49,10,10,10l211.448,0.65c8.892,0,16.125,7.234,16.125,16.125c0,8.891-7.233,16.125-16.125,16.125l-213.448,0.099
			c-5.51,0-10,4.49-10,10c0,5.52,4.49,10,10,10l181.907,0.005c8.206,0.743,14.666,7.624,14.666,16.019
			c0,8.197-6.152,14.97-14.079,15.98l-179.494,0.005c-5.51,0-10,4.48-10,9.99c0,5.52,4.49,10,10,10c0,0,143.879,0.15,144.448,0.15
			c8.892,0,16.125,7.234,16.125,16.125s-7.233,16.125-16.125,16.125H114.331z M325.001,352.004v67.94
			c-8.876-1.067-16.547-2.031-22-2.727v-65.213H325.001z M205.071,374.892c-8.968,2.218-14.816,3.41-21.755,0.09
			c-9.85-4.711-11.511-15.645-11.37-23.189h111.055v66.287c-6.879,1.584-17.856,4.038-30.65,6.628
			c4.001-13.036,4.06-28.793-8.1-41.593C230.469,368.609,215.79,372.241,205.071,374.892z M20.001,492.001v-30.238
			c0,0,43.388,8.24,44.011,8.24c4.702,0,8.894-3.333,9.811-8.122c1.038-5.424-2.518-10.663-7.942-11.701l-45.88-8.779v-46.317
			c19.12,3.779,43.912,16.863,68.013,29.583c30.533,16.114,59.372,31.335,81.987,31.335c38.768,0,110.803-16.798,123.534-19.842
			c5.106,0.672,19.582,2.55,37.207,4.618c9.983,9.125,28.865,30.192,33.318,51.223H20.001z M492.001,492.001L492.001,492.001
			H384.356c-2.695-18.374-13.308-35.393-23.318-47.871c20.871,2.147,41.51,3.872,53.963,3.872c23.761,0,57.664-15.136,77-24.865
			V492.001z"/>
	</g>
</g>
<g>
</g>
<g>
</g>
<g>
</g>
<g>
</g>
<g>
</g>
<g>
</g>
<g>
</g>
<g>
</g>
<g>
</g>
<g>
</g>
<g>
</g>
<g>
</g>
<g>
</g>
<g>
</g>
<g>
</g>
</svg>
